<mxfile host="app.diagrams.net" modified="2020-11-10T08:41:43.345Z" agent="5.0 (Windows)" etag="7Ii-APaU15bYIGnv2-Fc" version="13.9.2" type="github">
  <diagram id="C5RBs43oDa-KdzZeNtuy" name="Page-1">
    <mxGraphModel dx="865" dy="433" grid="1" gridSize="10" guides="1" tooltips="1" connect="1" arrows="1" fold="1" page="1" pageScale="1" pageWidth="827" pageHeight="1169" math="0" shadow="0">
      <root>
        <mxCell id="WIyWlLk6GJQsqaUBKTNV-0" />
        <mxCell id="WIyWlLk6GJQsqaUBKTNV-1" parent="WIyWlLk6GJQsqaUBKTNV-0" />
        <mxCell id="WIyWlLk6GJQsqaUBKTNV-2" value="" style="rounded=0;html=1;jettySize=auto;orthogonalLoop=1;fontSize=11;endArrow=block;endFill=0;endSize=8;strokeWidth=1;shadow=0;labelBackgroundColor=none;edgeStyle=orthogonalEdgeStyle;exitX=1;exitY=0.5;exitDx=0;exitDy=0;entryX=0;entryY=0.5;entryDx=0;entryDy=0;" parent="WIyWlLk6GJQsqaUBKTNV-1" source="nXdkxtceE0CgyxJkmKg6-1" target="xosmYYhnfr8041MUVnVW-3" edge="1">
          <mxGeometry relative="1" as="geometry">
            <mxPoint x="60" y="230" as="targetPoint" />
            <mxPoint x="140.0000000000001" y="120.00000000000006" as="sourcePoint" />
          </mxGeometry>
        </mxCell>
        <mxCell id="WIyWlLk6GJQsqaUBKTNV-5" value="yes" style="edgeStyle=orthogonalEdgeStyle;rounded=0;html=1;jettySize=auto;orthogonalLoop=1;fontSize=11;endArrow=block;endFill=0;endSize=8;strokeWidth=1;shadow=0;labelBackgroundColor=none;exitX=1;exitY=0.5;exitDx=0;exitDy=0;entryX=0;entryY=0.5;entryDx=0;entryDy=0;" parent="WIyWlLk6GJQsqaUBKTNV-1" source="xosmYYhnfr8041MUVnVW-3" target="xosmYYhnfr8041MUVnVW-0" edge="1">
          <mxGeometry y="10" relative="1" as="geometry">
            <mxPoint as="offset" />
            <mxPoint x="320" y="190" as="sourcePoint" />
            <mxPoint x="370" y="180" as="targetPoint" />
          </mxGeometry>
        </mxCell>
        <mxCell id="WIyWlLk6GJQsqaUBKTNV-6" value="Müşteri ile ilgili şirket &lt;br&gt;bilgisi varmı ?" style="rhombus;whiteSpace=wrap;html=1;shadow=0;fontFamily=Helvetica;fontSize=12;align=center;strokeWidth=1;spacing=6;spacingTop=-4;" parent="WIyWlLk6GJQsqaUBKTNV-1" vertex="1">
          <mxGeometry x="172.5" y="190" width="167.5" height="80" as="geometry" />
        </mxCell>
        <mxCell id="WIyWlLk6GJQsqaUBKTNV-7" value="Müşteri Ekle&lt;br&gt;Müşteri Önceliğini belirle&lt;br&gt;(İhracatçı)" style="rounded=1;whiteSpace=wrap;html=1;fontSize=12;glass=0;strokeWidth=1;shadow=0;" parent="WIyWlLk6GJQsqaUBKTNV-1" vertex="1">
          <mxGeometry x="160" y="310" width="158.75" height="70" as="geometry" />
        </mxCell>
        <mxCell id="xosmYYhnfr8041MUVnVW-0" value="Siparişi varmı ?" style="rhombus;whiteSpace=wrap;html=1;shadow=0;fontFamily=Helvetica;fontSize=12;align=center;strokeWidth=1;spacing=6;spacingTop=-4;" parent="WIyWlLk6GJQsqaUBKTNV-1" vertex="1">
          <mxGeometry x="350" y="80" width="100" height="80" as="geometry" />
        </mxCell>
        <mxCell id="xosmYYhnfr8041MUVnVW-3" value="Müşteri Kaydı&lt;br&gt; Varmı ?" style="rhombus;whiteSpace=wrap;html=1;shadow=0;fontFamily=Helvetica;fontSize=12;align=center;strokeWidth=1;spacing=6;spacingTop=-4;" parent="WIyWlLk6GJQsqaUBKTNV-1" vertex="1">
          <mxGeometry x="198.75" y="80" width="115" height="80" as="geometry" />
        </mxCell>
        <mxCell id="xosmYYhnfr8041MUVnVW-5" value="Yes" style="edgeStyle=orthogonalEdgeStyle;rounded=0;html=1;jettySize=auto;orthogonalLoop=1;fontSize=11;endArrow=block;endFill=0;endSize=8;strokeWidth=1;shadow=0;labelBackgroundColor=none;entryX=0;entryY=0.5;entryDx=0;entryDy=0;exitX=1;exitY=0.5;exitDx=0;exitDy=0;" parent="WIyWlLk6GJQsqaUBKTNV-1" source="xosmYYhnfr8041MUVnVW-0" target="xosmYYhnfr8041MUVnVW-6" edge="1">
          <mxGeometry y="10" relative="1" as="geometry">
            <mxPoint y="1" as="offset" />
            <mxPoint x="480" y="210.5" as="sourcePoint" />
            <mxPoint x="540" y="110" as="targetPoint" />
          </mxGeometry>
        </mxCell>
        <mxCell id="xosmYYhnfr8041MUVnVW-6" value="- Sipariş Ekle&lt;br&gt;- Varsa Müşteri &lt;br&gt;önceliğini belirle&lt;br&gt;(İhracatcı)" style="rounded=1;whiteSpace=wrap;html=1;fontSize=12;glass=0;strokeWidth=1;shadow=0;" parent="WIyWlLk6GJQsqaUBKTNV-1" vertex="1">
          <mxGeometry x="510" y="80" width="150" height="80" as="geometry" />
        </mxCell>
        <mxCell id="xosmYYhnfr8041MUVnVW-15" value="No" style="rounded=0;html=1;jettySize=auto;orthogonalLoop=1;fontSize=11;endArrow=block;endFill=0;endSize=8;strokeWidth=1;shadow=0;labelBackgroundColor=none;edgeStyle=orthogonalEdgeStyle;exitX=0.5;exitY=1;exitDx=0;exitDy=0;" parent="WIyWlLk6GJQsqaUBKTNV-1" source="xosmYYhnfr8041MUVnVW-3" target="WIyWlLk6GJQsqaUBKTNV-6" edge="1">
          <mxGeometry y="20" relative="1" as="geometry">
            <mxPoint as="offset" />
            <mxPoint x="110" y="350" as="sourcePoint" />
            <mxPoint x="180" y="260" as="targetPoint" />
          </mxGeometry>
        </mxCell>
        <mxCell id="xosmYYhnfr8041MUVnVW-16" value="" style="edgeStyle=orthogonalEdgeStyle;rounded=0;html=1;jettySize=auto;orthogonalLoop=1;fontSize=11;endArrow=block;endFill=0;endSize=8;strokeWidth=1;shadow=0;labelBackgroundColor=none;exitX=1;exitY=0.5;exitDx=0;exitDy=0;entryX=0;entryY=1;entryDx=0;entryDy=0;" parent="WIyWlLk6GJQsqaUBKTNV-1" source="WIyWlLk6GJQsqaUBKTNV-7" target="xosmYYhnfr8041MUVnVW-0" edge="1">
          <mxGeometry y="10" relative="1" as="geometry">
            <mxPoint as="offset" />
            <mxPoint x="160" y="440" as="sourcePoint" />
            <mxPoint x="310" y="440" as="targetPoint" />
          </mxGeometry>
        </mxCell>
        <mxCell id="xosmYYhnfr8041MUVnVW-23" value="Yes" style="edgeStyle=orthogonalEdgeStyle;rounded=0;html=1;jettySize=auto;orthogonalLoop=1;fontSize=11;endArrow=block;endFill=0;endSize=8;strokeWidth=1;shadow=0;labelBackgroundColor=none;exitX=0;exitY=0.5;exitDx=0;exitDy=0;entryX=1;entryY=0.5;entryDx=0;entryDy=0;" parent="WIyWlLk6GJQsqaUBKTNV-1" source="WIyWlLk6GJQsqaUBKTNV-6" target="xosmYYhnfr8041MUVnVW-24" edge="1">
          <mxGeometry y="10" relative="1" as="geometry">
            <mxPoint as="offset" />
            <mxPoint x="320" y="350" as="sourcePoint" />
            <mxPoint x="100" y="230" as="targetPoint" />
          </mxGeometry>
        </mxCell>
        <mxCell id="xosmYYhnfr8041MUVnVW-24" value="Şirket Ekle&lt;br&gt;(İhracatçı)" style="rounded=1;whiteSpace=wrap;html=1;fontSize=12;glass=0;strokeWidth=1;shadow=0;" parent="WIyWlLk6GJQsqaUBKTNV-1" vertex="1">
          <mxGeometry x="10" y="210" width="120" height="40" as="geometry" />
        </mxCell>
        <mxCell id="xosmYYhnfr8041MUVnVW-28" value="No" style="edgeStyle=orthogonalEdgeStyle;rounded=0;html=1;jettySize=auto;orthogonalLoop=1;fontSize=11;endArrow=block;endFill=0;endSize=8;strokeWidth=1;shadow=0;labelBackgroundColor=none;exitX=0.5;exitY=1;exitDx=0;exitDy=0;" parent="WIyWlLk6GJQsqaUBKTNV-1" source="WIyWlLk6GJQsqaUBKTNV-6" target="WIyWlLk6GJQsqaUBKTNV-7" edge="1">
          <mxGeometry y="10" relative="1" as="geometry">
            <mxPoint as="offset" />
            <mxPoint x="180" y="230" as="sourcePoint" />
            <mxPoint x="100" y="230" as="targetPoint" />
            <Array as="points">
              <mxPoint x="256" y="290" />
              <mxPoint x="256" y="290" />
            </Array>
          </mxGeometry>
        </mxCell>
        <mxCell id="xosmYYhnfr8041MUVnVW-29" value="&amp;nbsp;yes" style="edgeStyle=orthogonalEdgeStyle;rounded=0;html=1;jettySize=auto;orthogonalLoop=1;fontSize=11;endArrow=block;endFill=0;endSize=8;strokeWidth=1;shadow=0;labelBackgroundColor=none;exitX=0.5;exitY=1;exitDx=0;exitDy=0;entryX=0;entryY=0.5;entryDx=0;entryDy=0;" parent="WIyWlLk6GJQsqaUBKTNV-1" source="xosmYYhnfr8041MUVnVW-24" target="WIyWlLk6GJQsqaUBKTNV-7" edge="1">
          <mxGeometry y="10" relative="1" as="geometry">
            <mxPoint as="offset" />
            <mxPoint x="230" y="270" as="sourcePoint" />
            <mxPoint x="80" y="370" as="targetPoint" />
          </mxGeometry>
        </mxCell>
        <mxCell id="xosmYYhnfr8041MUVnVW-30" value="" style="edgeStyle=orthogonalEdgeStyle;rounded=0;html=1;jettySize=auto;orthogonalLoop=1;fontSize=11;endArrow=block;endFill=0;endSize=8;strokeWidth=1;shadow=0;labelBackgroundColor=none;entryX=0;entryY=0.5;entryDx=0;entryDy=0;exitX=1;exitY=0.5;exitDx=0;exitDy=0;" parent="WIyWlLk6GJQsqaUBKTNV-1" source="xosmYYhnfr8041MUVnVW-6" target="xosmYYhnfr8041MUVnVW-31" edge="1">
          <mxGeometry y="10" relative="1" as="geometry">
            <mxPoint as="offset" />
            <mxPoint x="820" y="120" as="sourcePoint" />
            <mxPoint x="450" y="150" as="targetPoint" />
          </mxGeometry>
        </mxCell>
        <mxCell id="xosmYYhnfr8041MUVnVW-31" value="Siparişin Fiyatları &lt;br&gt;Belirli mi?" style="rhombus;whiteSpace=wrap;html=1;" parent="WIyWlLk6GJQsqaUBKTNV-1" vertex="1">
          <mxGeometry x="730" y="80" width="140" height="80" as="geometry" />
        </mxCell>
        <mxCell id="xosmYYhnfr8041MUVnVW-32" value="No" style="edgeStyle=orthogonalEdgeStyle;rounded=0;html=1;jettySize=auto;orthogonalLoop=1;fontSize=11;endArrow=block;endFill=0;endSize=8;strokeWidth=1;shadow=0;labelBackgroundColor=none;exitX=0.5;exitY=1;exitDx=0;exitDy=0;entryX=0.5;entryY=0;entryDx=0;entryDy=0;" parent="WIyWlLk6GJQsqaUBKTNV-1" source="xosmYYhnfr8041MUVnVW-31" target="xosmYYhnfr8041MUVnVW-33" edge="1">
          <mxGeometry y="10" relative="1" as="geometry">
            <mxPoint y="1" as="offset" />
            <mxPoint x="740" y="130" as="sourcePoint" />
            <mxPoint x="995" y="240" as="targetPoint" />
          </mxGeometry>
        </mxCell>
        <mxCell id="xosmYYhnfr8041MUVnVW-33" value="Fiyatları Belirle&lt;br&gt;(Müdür)" style="rounded=1;whiteSpace=wrap;html=1;fontSize=12;glass=0;strokeWidth=1;shadow=0;" parent="WIyWlLk6GJQsqaUBKTNV-1" vertex="1">
          <mxGeometry x="740" y="200" width="120" height="40" as="geometry" />
        </mxCell>
        <mxCell id="xosmYYhnfr8041MUVnVW-35" value="" style="edgeStyle=orthogonalEdgeStyle;rounded=0;html=1;jettySize=auto;orthogonalLoop=1;fontSize=11;endArrow=block;endFill=0;endSize=8;strokeWidth=1;shadow=0;labelBackgroundColor=none;exitX=1;exitY=0.5;exitDx=0;exitDy=0;entryX=0;entryY=1;entryDx=0;entryDy=0;" parent="WIyWlLk6GJQsqaUBKTNV-1" source="xosmYYhnfr8041MUVnVW-33" target="xosmYYhnfr8041MUVnVW-36" edge="1">
          <mxGeometry y="10" relative="1" as="geometry">
            <mxPoint y="1" as="offset" />
            <mxPoint x="1080" y="240" as="sourcePoint" />
            <mxPoint x="1080" y="360" as="targetPoint" />
          </mxGeometry>
        </mxCell>
        <mxCell id="xosmYYhnfr8041MUVnVW-36" value="Sipariş &lt;br&gt;Onaylandı mı ?&lt;br&gt;İhracatçı" style="rhombus;whiteSpace=wrap;html=1;" parent="WIyWlLk6GJQsqaUBKTNV-1" vertex="1">
          <mxGeometry x="1110" y="80" width="140" height="80" as="geometry" />
        </mxCell>
        <mxCell id="xosmYYhnfr8041MUVnVW-37" value="Yes" style="edgeStyle=orthogonalEdgeStyle;rounded=0;html=1;jettySize=auto;orthogonalLoop=1;fontSize=11;endArrow=block;endFill=0;endSize=8;strokeWidth=1;shadow=0;labelBackgroundColor=none;exitX=1;exitY=0.5;exitDx=0;exitDy=0;" parent="WIyWlLk6GJQsqaUBKTNV-1" source="xosmYYhnfr8041MUVnVW-31" target="nXdkxtceE0CgyxJkmKg6-9" edge="1">
          <mxGeometry y="10" relative="1" as="geometry">
            <mxPoint y="1" as="offset" />
            <mxPoint x="980" y="260" as="sourcePoint" />
            <mxPoint x="920" y="120" as="targetPoint" />
          </mxGeometry>
        </mxCell>
        <mxCell id="xosmYYhnfr8041MUVnVW-43" value="Yes" style="edgeStyle=orthogonalEdgeStyle;rounded=0;html=1;jettySize=auto;orthogonalLoop=1;fontSize=11;endArrow=block;endFill=0;endSize=8;strokeWidth=1;shadow=0;labelBackgroundColor=none;exitX=1;exitY=0.5;exitDx=0;exitDy=0;entryX=0;entryY=0.5;entryDx=0;entryDy=0;" parent="WIyWlLk6GJQsqaUBKTNV-1" source="xosmYYhnfr8041MUVnVW-36" target="nXdkxtceE0CgyxJkmKg6-11" edge="1">
          <mxGeometry y="10" relative="1" as="geometry">
            <mxPoint y="1" as="offset" />
            <mxPoint x="1460" y="250" as="sourcePoint" />
            <mxPoint x="1330" y="120" as="targetPoint" />
          </mxGeometry>
        </mxCell>
        <mxCell id="xosmYYhnfr8041MUVnVW-44" value="No" style="edgeStyle=orthogonalEdgeStyle;rounded=0;html=1;jettySize=auto;orthogonalLoop=1;fontSize=11;endArrow=block;endFill=0;endSize=8;strokeWidth=1;shadow=0;labelBackgroundColor=none;exitX=0.5;exitY=1;exitDx=0;exitDy=0;entryX=0.5;entryY=0;entryDx=0;entryDy=0;" parent="WIyWlLk6GJQsqaUBKTNV-1" source="xosmYYhnfr8041MUVnVW-36" target="nXdkxtceE0CgyxJkmKg6-6" edge="1">
          <mxGeometry y="10" relative="1" as="geometry">
            <mxPoint y="1" as="offset" />
            <mxPoint x="1250" y="120" as="sourcePoint" />
            <mxPoint x="1180" y="220" as="targetPoint" />
          </mxGeometry>
        </mxCell>
        <mxCell id="xosmYYhnfr8041MUVnVW-69" value="Yes" style="edgeStyle=orthogonalEdgeStyle;rounded=0;html=1;jettySize=auto;orthogonalLoop=1;fontSize=11;endArrow=block;endFill=0;endSize=8;strokeWidth=1;shadow=0;labelBackgroundColor=none;entryX=0.5;entryY=1;entryDx=0;entryDy=0;exitX=0;exitY=0.5;exitDx=0;exitDy=0;" parent="WIyWlLk6GJQsqaUBKTNV-1" source="nXdkxtceE0CgyxJkmKg6-6" target="xosmYYhnfr8041MUVnVW-33" edge="1">
          <mxGeometry y="10" relative="1" as="geometry">
            <mxPoint y="1" as="offset" />
            <mxPoint x="1010" y="310" as="sourcePoint" />
            <mxPoint x="1159.96" y="268.67999999999995" as="targetPoint" />
          </mxGeometry>
        </mxCell>
        <mxCell id="nXdkxtceE0CgyxJkmKg6-1" value="Başla" style="ellipse;whiteSpace=wrap;html=1;aspect=fixed;" vertex="1" parent="WIyWlLk6GJQsqaUBKTNV-1">
          <mxGeometry x="40" y="90" width="60" height="60" as="geometry" />
        </mxCell>
        <mxCell id="nXdkxtceE0CgyxJkmKg6-3" value="Bitir" style="ellipse;whiteSpace=wrap;html=1;aspect=fixed;" vertex="1" parent="WIyWlLk6GJQsqaUBKTNV-1">
          <mxGeometry x="430" y="360" width="50" height="50" as="geometry" />
        </mxCell>
        <mxCell id="nXdkxtceE0CgyxJkmKg6-4" value="No" style="edgeStyle=orthogonalEdgeStyle;rounded=0;html=1;jettySize=auto;orthogonalLoop=1;fontSize=11;endArrow=block;endFill=0;endSize=8;strokeWidth=1;shadow=0;labelBackgroundColor=none;exitX=0.5;exitY=1;exitDx=0;exitDy=0;entryX=0.5;entryY=0;entryDx=0;entryDy=0;" edge="1" parent="WIyWlLk6GJQsqaUBKTNV-1" source="xosmYYhnfr8041MUVnVW-0" target="nXdkxtceE0CgyxJkmKg6-3">
          <mxGeometry y="10" relative="1" as="geometry">
            <mxPoint y="1" as="offset" />
            <mxPoint x="450" y="120.00000000000006" as="sourcePoint" />
            <mxPoint x="400" y="360" as="targetPoint" />
          </mxGeometry>
        </mxCell>
        <mxCell id="nXdkxtceE0CgyxJkmKg6-6" value="Fiyatları Tekrar &lt;br&gt;belirlensin mi ?" style="rhombus;whiteSpace=wrap;html=1;" vertex="1" parent="WIyWlLk6GJQsqaUBKTNV-1">
          <mxGeometry x="1100" y="220" width="160" height="80" as="geometry" />
        </mxCell>
        <mxCell id="nXdkxtceE0CgyxJkmKg6-7" value="Bitir" style="ellipse;whiteSpace=wrap;html=1;aspect=fixed;" vertex="1" parent="WIyWlLk6GJQsqaUBKTNV-1">
          <mxGeometry x="1155" y="370" width="50" height="50" as="geometry" />
        </mxCell>
        <mxCell id="nXdkxtceE0CgyxJkmKg6-8" value="No" style="edgeStyle=orthogonalEdgeStyle;rounded=0;html=1;jettySize=auto;orthogonalLoop=1;fontSize=11;endArrow=block;endFill=0;endSize=8;strokeWidth=1;shadow=0;labelBackgroundColor=none;exitX=0.5;exitY=1;exitDx=0;exitDy=0;" edge="1" parent="WIyWlLk6GJQsqaUBKTNV-1" target="nXdkxtceE0CgyxJkmKg6-7">
          <mxGeometry y="10" relative="1" as="geometry">
            <mxPoint y="1" as="offset" />
            <mxPoint x="1180" y="300" as="sourcePoint" />
            <mxPoint x="1380" y="430" as="targetPoint" />
            <Array as="points" />
          </mxGeometry>
        </mxCell>
        <mxCell id="nXdkxtceE0CgyxJkmKg6-9" value="Siparişi onaylamak için Müşteri ile iletişime geç&lt;br&gt;(İhracatçı)" style="rounded=1;whiteSpace=wrap;html=1;fontSize=12;glass=0;strokeWidth=1;shadow=0;" vertex="1" parent="WIyWlLk6GJQsqaUBKTNV-1">
          <mxGeometry x="930" y="95" width="150" height="50" as="geometry" />
        </mxCell>
        <mxCell id="nXdkxtceE0CgyxJkmKg6-10" value="" style="edgeStyle=orthogonalEdgeStyle;rounded=0;html=1;jettySize=auto;orthogonalLoop=1;fontSize=11;endArrow=block;endFill=0;endSize=8;strokeWidth=1;shadow=0;labelBackgroundColor=none;exitX=1;exitY=0.5;exitDx=0;exitDy=0;" edge="1" parent="WIyWlLk6GJQsqaUBKTNV-1" source="nXdkxtceE0CgyxJkmKg6-9">
          <mxGeometry y="10" relative="1" as="geometry">
            <mxPoint y="1" as="offset" />
            <mxPoint x="1250" y="120" as="sourcePoint" />
            <mxPoint x="1110" y="120" as="targetPoint" />
          </mxGeometry>
        </mxCell>
        <mxCell id="nXdkxtceE0CgyxJkmKg6-11" value="Siparişin %20 - %30 ödemesi yapılır" style="rounded=1;whiteSpace=wrap;html=1;fontSize=12;glass=0;strokeWidth=1;shadow=0;" vertex="1" parent="WIyWlLk6GJQsqaUBKTNV-1">
          <mxGeometry x="1310" y="100" width="120" height="40" as="geometry" />
        </mxCell>
      </root>
    </mxGraphModel>
  </diagram>
</mxfile>
